# xmcd
#
# Track frame offsets:
#  150
#  13428
#  27889
#  44968
#  59974
#  75744
#  89798
#  106160
#  123456
#  144606
#  160999
#  174826
#  189199
#  203453
#  220767
#  237262
#  250687
#  267795
#  279909
#  295348
#
# Disc length: 4076 seconds
#
# Revision: 0
# Processed by: cddbd v1.5.2PL0 Copyright (c) Steve Scherf et al.
# Submitted via: Collectorz.com_Music_Collector 6.11
#
DISCID=270fea14
DTITLE=Various Artist - A Bailar [CD1)
DYEAR=1900
DGENRE=
TTITLE0=Amigos De Gines - Ya Huele A Feria
TTITLE1=Los Romeros De La Puebla - Vamos A Beber
TTITLE2=Cantores De Hispalis - Que Vivan Las Sevillanas
TTITLE3=Amigos De Gines -  ¿que Le Digo Yo A Sevilla
TTITLE4=El Pali - Sevilla De Mi Ninez
TTITLE5=Callejon Del Agua - Aquellas Corraleras De Triana 
TTITLE6=Brumas - Amapola
TTITLE7=Romero San Juan -  Arrimate
TTITLE8=Los Romeros De La Puebla - Cielo De Amor
TTITLE9=Los Marismeños - La Marisma Se Alborota
TTITLE10=Los Romeros De La Puebla -  Hablando De Amor
TTITLE11=Amigos De Gines - Sevillanas De Colores
TTITLE12=Los Hermanos Reyes -  Un Halcon Y Una Paloma
TTITLE13=Requiebros - Aprende A Bailar
TTITLE14=Los Hermanos Reyes -  Pa Que Me Llamas
TTITLE15=Los Hermanos Toronjo -  Que Bonito Es El Rocio
TTITLE16=Requiebros - Cantame Por Sevillanas
TTITLE17=Los Romeros Del La Puebla - Sus Caracoles
TTITLE18=El Pali - Aquella Alameda
TTITLE19=Los Del Rio - Sevillanas De La Suegra
EXTD=
EXTT0=
EXTT1=
EXTT2=
EXTT3=
EXTT4=
EXTT5=
EXTT6=
EXTT7=
EXTT8=
EXTT9=
EXTT10=
EXTT11=
EXTT12=
EXTT13=
EXTT14=
EXTT15=
EXTT16=
EXTT17=
EXTT18=
EXTT19=
PLAYORDER=
